<?xml version="1.0" encoding="UTF-8"?><svg xmlns="http://www.w3.org/2000/svg" xmlns:xlink="http://www.w3.org/1999/xlink" contentScriptType="text/ecmascript" width="375pt" zoomAndPan="magnify" contentStyleType="text/css" viewBox="0 0 375 374.999991" height="374.999991pt" preserveAspectRatio="xMidYMid meet" version="1.2"><defs><g/><clipPath xml:id="clip1" id="clip1"><path d="M 108.371094 88.984375 L 266.621094 88.984375 L 266.621094 194.734375 L 108.371094 194.734375 Z M 108.371094 88.984375 "/></clipPath></defs><g xml:id="surface1" id="surface1"><rect x="0" width="375" y="0" height="374.999991" style="fill:rgb(100%,100%,100%);fill-opacity:1;stroke:none;"/><rect x="0" width="375" y="0" height="374.999991" style="fill:rgb(100%,100%,100%);fill-opacity:1;stroke:none;"/><rect x="0" width="375" y="0" height="374.999991" style="fill:rgb(49.409485%,85.099792%,34.118652%);fill-opacity:1;stroke:none;"/><path style=" stroke:none;fill-rule:nonzero;fill:rgb(100%,100%,100%);fill-opacity:1;" d="M 182.027344 98.359375 C 182.027344 100.757812 180.074219 102.707031 177.671875 102.707031 C 175.269531 102.707031 173.316406 100.757812 173.316406 98.359375 C 173.316406 95.960938 175.269531 94.007812 177.671875 94.007812 C 180.074219 94.007812 182.027344 95.957031 182.027344 98.359375 Z M 164.632812 140.300781 L 157.90625 155.824219 C 157.496094 156.769531 156.566406 157.335938 155.59375 157.335938 C 155.261719 157.335938 154.921875 157.269531 154.597656 157.132812 C 153.320312 156.582031 152.734375 155.101562 153.285156 153.828125 L 160.015625 138.300781 C 158.601562 137.925781 157.125 137.722656 155.59375 137.722656 C 146.152344 137.722656 138.464844 145.394531 138.464844 154.828125 C 138.464844 164.261719 146.148438 171.9375 155.59375 171.9375 C 165.042969 171.9375 172.726562 164.261719 172.726562 154.828125 C 172.726562 148.699219 169.484375 143.324219 164.632812 140.300781 Z M 219.394531 137.71875 C 217.664062 137.71875 215.992188 137.980469 214.414062 138.457031 L 221.667969 153.75 C 222.039062 154.527344 221.984375 155.441406 221.523438 156.167969 C 221.058594 156.894531 220.257812 157.335938 219.394531 157.335938 L 202.453125 157.335938 C 203.671875 165.582031 210.804688 171.929688 219.394531 171.929688 C 228.839844 171.929688 236.527344 164.257812 236.527344 154.824219 C 236.527344 145.386719 228.839844 137.71875 219.394531 137.71875 Z M 209.867188 140.613281 C 205.949219 143.242188 203.171875 147.449219 202.449219 152.3125 L 215.414062 152.3125 Z M 209.867188 140.613281 "/><g clip-rule="nonzero" clip-path="url(#clip1)"><path style=" stroke:none;fill-rule:nonzero;fill:rgb(34.899902%,34.899902%,34.509277%);fill-opacity:1;" d="M 265.324219 190.074219 C 254.496094 183.492188 242.417969 178.367188 229.425781 174.839844 C 229.300781 174.804688 229.175781 174.773438 229.050781 174.742188 C 236.445312 171.148438 241.550781 163.574219 241.550781 154.824219 C 241.550781 142.621094 231.613281 132.695312 219.390625 132.695312 C 216.890625 132.695312 214.484375 133.117188 212.242188 133.882812 L 209.199219 127.472656 C 211.574219 127.460938 213.390625 127.433594 214.046875 127.378906 C 214.734375 127.324219 215.367188 126.988281 215.796875 126.449219 C 216.230469 125.914062 216.425781 125.222656 216.332031 124.539062 C 214.226562 108.777344 206.25 100.785156 192.628906 100.785156 C 191.933594 100.785156 191.265625 101.074219 190.789062 101.582031 L 176.570312 116.796875 L 170.976562 116.796875 C 169.976562 116.796875 169.066406 117.390625 168.667969 118.3125 L 162.027344 133.644531 C 159.988281 133.027344 157.832031 132.691406 155.59375 132.691406 C 143.375 132.691406 133.433594 142.617188 133.433594 154.824219 C 133.433594 163.570312 138.542969 171.148438 145.933594 174.738281 C 145.8125 174.773438 145.683594 174.800781 145.5625 174.835938 C 132.566406 178.363281 120.488281 183.492188 109.660156 190.074219 C 108.472656 190.792969 108.097656 192.339844 108.820312 193.527344 C 109.539062 194.710938 111.089844 195.085938 112.277344 194.367188 C 122.703125 188.027344 134.347656 183.089844 146.882812 179.683594 C 159.882812 176.152344 173.546875 174.367188 187.492188 174.367188 C 201.433594 174.367188 215.101562 176.15625 228.101562 179.683594 C 240.640625 183.089844 252.28125 188.027344 262.707031 194.367188 C 263.117188 194.617188 263.566406 194.734375 264.011719 194.734375 C 264.859375 194.734375 265.6875 194.304688 266.164062 193.527344 C 266.890625 192.339844 266.511719 190.796875 265.324219 190.074219 Z M 236.523438 154.824219 C 236.523438 164.257812 228.839844 171.933594 219.390625 171.933594 C 210.800781 171.933594 203.667969 165.582031 202.449219 157.339844 L 219.390625 157.339844 C 220.253906 157.339844 221.054688 156.902344 221.519531 156.171875 C 221.980469 155.441406 222.035156 154.53125 221.667969 153.75 L 214.410156 138.460938 C 215.988281 137.980469 217.660156 137.722656 219.390625 137.722656 C 228.839844 137.71875 236.523438 145.390625 236.523438 154.824219 Z M 215.417969 152.3125 L 202.453125 152.3125 C 203.171875 147.449219 205.949219 143.242188 209.871094 140.613281 Z M 200.183594 143.816406 L 192.339844 127.417969 C 195.402344 127.441406 199.671875 127.472656 203.636719 127.476562 L 207.699219 136.039062 C 204.597656 137.96875 202.011719 140.648438 200.183594 143.816406 Z M 177.667969 121.824219 C 177.683594 121.824219 177.695312 121.820312 177.710938 121.820312 C 177.757812 121.820312 177.800781 121.816406 177.84375 121.8125 C 177.882812 121.808594 177.925781 121.808594 177.964844 121.804688 C 178.003906 121.796875 178.042969 121.792969 178.082031 121.785156 C 178.125 121.78125 178.167969 121.773438 178.210938 121.765625 C 178.246094 121.753906 178.28125 121.746094 178.316406 121.738281 C 178.359375 121.722656 178.40625 121.714844 178.449219 121.699219 C 178.484375 121.6875 178.515625 121.675781 178.550781 121.664062 C 178.59375 121.648438 178.632812 121.632812 178.671875 121.613281 C 178.710938 121.597656 178.746094 121.578125 178.777344 121.5625 C 178.816406 121.542969 178.851562 121.523438 178.890625 121.503906 C 178.925781 121.488281 178.960938 121.460938 178.992188 121.441406 C 179.027344 121.417969 179.066406 121.398438 179.097656 121.375 C 179.128906 121.355469 179.160156 121.332031 179.191406 121.304688 C 179.226562 121.28125 179.257812 121.253906 179.292969 121.226562 C 179.320312 121.199219 179.347656 121.175781 179.375 121.152344 C 179.410156 121.121094 179.445312 121.085938 179.476562 121.054688 C 179.488281 121.042969 179.496094 121.035156 179.503906 121.027344 L 193.707031 105.828125 C 198.640625 106.011719 202.414062 107.460938 205.222656 110.242188 C 207.9375 112.933594 209.835938 117.027344 210.894531 122.4375 C 205.890625 122.488281 195.546875 122.429688 188.355469 122.363281 C 187.480469 122.355469 186.675781 122.792969 186.210938 123.523438 C 185.742188 124.257812 185.6875 125.175781 186.0625 125.957031 L 197.476562 149.820312 C 197.546875 149.960938 197.628906 150.089844 197.71875 150.214844 C 197.570312 150.902344 197.460938 151.601562 197.378906 152.3125 L 190.125 152.3125 L 172.730469 121.824219 Z M 160.015625 138.296875 L 153.285156 153.824219 C 152.734375 155.101562 153.320312 156.578125 154.597656 157.128906 C 154.921875 157.269531 155.261719 157.335938 155.59375 157.335938 C 156.566406 157.335938 157.492188 156.769531 157.90625 155.820312 L 164.632812 140.296875 C 169.484375 143.320312 172.726562 148.699219 172.726562 154.824219 C 172.726562 164.253906 165.042969 171.929688 155.597656 171.929688 C 146.152344 171.929688 138.46875 164.257812 138.46875 154.824219 C 138.46875 145.386719 146.152344 137.714844 155.597656 137.714844 C 157.125 137.71875 158.605469 137.921875 160.015625 138.296875 Z M 187.496094 169.34375 C 182.152344 169.34375 176.847656 169.597656 171.601562 170.105469 C 175.410156 166.128906 177.753906 160.746094 177.753906 154.824219 C 177.753906 146.636719 173.277344 139.480469 166.640625 135.652344 L 170.175781 127.496094 L 186.476562 156.070312 C 186.925781 156.855469 187.761719 157.335938 188.664062 157.335938 L 197.378906 157.335938 C 197.941406 162.261719 200.125 166.699219 203.386719 170.105469 C 198.140625 169.597656 192.839844 169.34375 187.496094 169.34375 Z M 177.667969 107.730469 C 182.84375 107.730469 187.058594 103.527344 187.058594 98.355469 C 187.058594 93.183594 182.847656 88.984375 177.667969 88.984375 C 172.492188 88.984375 168.28125 93.1875 168.28125 98.359375 C 168.28125 103.53125 172.492188 107.730469 177.667969 107.730469 Z M 177.667969 94.007812 C 180.070312 94.007812 182.023438 95.957031 182.023438 98.355469 C 182.023438 100.753906 180.070312 102.703125 177.667969 102.703125 C 175.269531 102.703125 173.3125 100.753906 173.3125 98.355469 C 173.3125 95.957031 175.269531 94.007812 177.667969 94.007812 Z M 177.667969 94.007812 "/></g><g style="fill:rgb(100%,100%,100%);fill-opacity:1;"><g transform="translate(107.674803, 231.567201)"><path style="stroke:none;" d="M 2.902344 0 L 19.964844 0 L 19.964844 -3.628906 L 6.601562 -3.628906 L 6.601562 -9.835938 L 19.339844 -9.835938 L 19.339844 -13.265625 L 6.601562 -13.265625 L 6.601562 -19.503906 L 19.867188 -19.503906 L 19.867188 -23.101562 L 2.902344 -23.101562 Z M 2.902344 0 "/></g></g><g style="fill:rgb(100%,100%,100%);fill-opacity:1;"><g transform="translate(129.487755, 231.567201)"><path style="stroke:none;" d="M 13.660156 0.460938 C 16.929688 0.460938 19.964844 -0.59375 22.339844 -2.96875 L 19.800781 -5.511719 C 18.183594 -3.894531 15.808594 -3.003906 13.660156 -3.003906 C 7.722656 -3.003906 5.148438 -7.195312 5.148438 -11.417969 C 5.148438 -15.675781 7.753906 -19.996094 13.660156 -19.996094 C 15.808594 -19.996094 17.953125 -19.238281 19.636719 -17.621094 L 22.109375 -19.996094 C 19.734375 -22.375 16.796875 -23.496094 13.660156 -23.496094 C 5.378906 -23.496094 1.484375 -17.457031 1.484375 -11.386719 C 1.484375 -5.3125 5.3125 0.460938 13.660156 0.460938 Z M 13.660156 0.460938 "/></g></g><g style="fill:rgb(100%,100%,100%);fill-opacity:1;"><g transform="translate(152.686702, 231.567201)"><path style="stroke:none;" d="M 13.300781 0.460938 C 21.316406 0.460938 25.113281 -5.246094 25.113281 -11.449219 C 25.113281 -17.65625 21.253906 -23.496094 13.363281 -23.496094 C 6.402344 -23.496094 1.484375 -18.414062 1.484375 -11.417969 C 1.484375 -5.378906 5.28125 0.460938 13.300781 0.460938 Z M 13.300781 -2.9375 C 7.558594 -2.9375 5.148438 -7.292969 5.148438 -11.386719 C 5.148438 -16.402344 7.984375 -20.128906 13.363281 -20.128906 C 19.039062 -20.128906 21.449219 -15.640625 21.449219 -11.386719 C 21.449219 -7.027344 19.039062 -2.9375 13.300781 -2.9375 Z M 13.300781 -2.9375 "/></g></g><g style="fill:rgb(100%,100%,100%);fill-opacity:1;"><g transform="translate(179.284646, 231.567201)"><path style="stroke:none;" d=""/></g></g><g style="fill:rgb(100%,100%,100%);fill-opacity:1;"><g transform="translate(187.50163, 231.567201)"><path style="stroke:none;" d="M 2.902344 0 L 6.601562 0 L 6.601562 -7.984375 L 11.484375 -7.984375 L 18.511719 0 L 22.835938 0 L 22.441406 -0.660156 L 15.542969 -8.347656 C 20.097656 -8.976562 21.8125 -12.277344 21.8125 -15.542969 C 21.8125 -19.4375 19.007812 -23.101562 13.660156 -23.101562 L 2.902344 -23.101562 Z M 6.601562 -11.351562 L 6.601562 -19.699219 L 13.660156 -19.699219 C 16.699219 -19.699219 18.050781 -17.554688 18.050781 -15.476562 C 18.050781 -13.265625 16.664062 -11.351562 13.628906 -11.351562 Z M 6.601562 -11.351562 "/></g></g><g style="fill:rgb(100%,100%,100%);fill-opacity:1;"><g transform="translate(211.294582, 231.567201)"><path style="stroke:none;" d="M 2.902344 0 L 6.566406 0 L 6.566406 -23.101562 L 2.902344 -23.101562 Z M 2.902344 0 "/></g></g><g style="fill:rgb(100%,100%,100%);fill-opacity:1;"><g transform="translate(220.765563, 231.567201)"><path style="stroke:none;" d="M 2.902344 0 L 11.648438 0 C 19.667969 0 23.230469 -5.742188 23.230469 -11.515625 C 23.230469 -17.324219 19.636719 -23.101562 11.648438 -23.101562 L 2.902344 -23.101562 Z M 6.566406 -3.5625 L 6.566406 -19.570312 L 11.648438 -19.570312 C 17.191406 -19.570312 19.570312 -15.476562 19.570312 -11.550781 C 19.570312 -7.558594 17.191406 -3.5625 11.648438 -3.5625 Z M 6.566406 -3.5625 "/></g></g><g style="fill:rgb(100%,100%,100%);fill-opacity:1;"><g transform="translate(245.515515, 231.567201)"><path style="stroke:none;" d="M 2.902344 0 L 19.964844 0 L 19.964844 -3.628906 L 6.601562 -3.628906 L 6.601562 -9.835938 L 19.339844 -9.835938 L 19.339844 -13.265625 L 6.601562 -13.265625 L 6.601562 -19.503906 L 19.867188 -19.503906 L 19.867188 -23.101562 L 2.902344 -23.101562 Z M 2.902344 0 "/></g></g><g style="fill:rgb(34.899902%,34.899902%,34.509277%);fill-opacity:1;"><g transform="translate(98.57365, 248.351323)"><path style="stroke:none;" d="M 0.742188 0.621094 L 3.449219 2.886719 C 4.621094 3.867188 5.972656 4.324219 7.050781 3.035156 C 7.425781 2.589844 7.722656 1.632812 7.183594 0.839844 C 7.941406 1.082031 8.558594 0.855469 8.984375 0.351562 C 9.972656 -0.828125 9.511719 -2.074219 8.390625 -3.015625 L 5.683594 -5.28125 Z M 4.570312 -2.050781 L 5.90625 -3.644531 L 7.675781 -2.164062 C 8.382812 -1.570312 8.378906 -0.828125 8.035156 -0.414062 C 7.636719 0.0585938 7.058594 0.03125 6.351562 -0.5625 Z M 2.410156 0.527344 L 3.867188 -1.207031 L 5.644531 0.28125 C 6.183594 0.730469 6.644531 1.605469 6.113281 2.238281 C 5.578125 2.878906 4.695312 2.441406 4.183594 2.011719 Z M 2.410156 0.527344 "/></g></g><g style="fill:rgb(34.899902%,34.899902%,34.509277%);fill-opacity:1;"><g transform="translate(105.864307, 254.319365)"><path style="stroke:none;" d="M 0.773438 0.582031 L 1.75 1.3125 L 6.371094 -4.839844 L 5.398438 -5.570312 Z M 0.773438 0.582031 "/></g></g><g style="fill:rgb(34.899902%,34.899902%,34.509277%);fill-opacity:1;"><g transform="translate(109.615776, 257.163526)"><path style="stroke:none;" d="M 3.691406 2.667969 C 4.59375 3.277344 5.628906 3.550781 6.726562 3.335938 L 6.5 2.160156 C 5.75 2.304688 4.929688 2.109375 4.335938 1.710938 C 2.691406 0.605469 2.761719 -1.03125 3.546875 -2.199219 C 4.339844 -3.375 5.863281 -4.085938 7.496094 -2.984375 C 8.089844 -2.585938 8.542969 -1.976562 8.707031 -1.21875 L 9.832031 -1.414062 C 9.617188 -2.511719 9.015625 -3.371094 8.148438 -3.953125 C 5.859375 -5.492188 3.65625 -4.550781 2.527344 -2.871094 C 1.398438 -1.191406 1.382812 1.117188 3.691406 2.667969 Z M 3.691406 2.667969 "/></g></g><g style="fill:rgb(34.899902%,34.899902%,34.509277%);fill-opacity:1;"><g transform="translate(117.393637, 262.328308)"><path style="stroke:none;" d="M 2.722656 1.574219 L 3.789062 2.1875 L 5.367188 -0.542969 L 10.257812 -2.902344 L 10.285156 -2.949219 L 9 -3.691406 L 5.40625 -1.84375 L 5.265625 -5.847656 L 4 -6.578125 L 3.972656 -6.53125 L 4.300781 -1.160156 Z M 2.722656 1.574219 "/></g></g><g style="fill:rgb(34.899902%,34.899902%,34.509277%);fill-opacity:1;"><g transform="translate(125.343242, 266.858333)"><path style="stroke:none;" d="M 4.019531 2.136719 C 5 2.617188 6.0625 2.746094 7.121094 2.382812 L 6.734375 1.25 C 6.011719 1.496094 5.171875 1.414062 4.527344 1.101562 C 2.75 0.230469 2.59375 -1.398438 3.210938 -2.664062 C 3.835938 -3.9375 5.25 -4.851562 7.015625 -3.984375 C 7.660156 -3.671875 8.1875 -3.128906 8.457031 -2.398438 L 9.546875 -2.75 C 9.179688 -3.808594 8.464844 -4.574219 7.527344 -5.03125 C 5.050781 -6.246094 3 -5.007812 2.109375 -3.191406 C 1.222656 -1.371094 1.523438 0.914062 4.019531 2.136719 Z M 4.019531 2.136719 "/></g></g><g style="fill:rgb(34.899902%,34.899902%,34.509277%);fill-opacity:1;"><g transform="translate(133.748247, 270.889476)"><path style="stroke:none;" d="M 0.894531 0.367188 L 5.785156 2.378906 L 6.222656 1.324219 L 2.46875 -0.222656 L 4.960938 -6.28125 L 3.824219 -6.75 Z M 0.894531 0.367188 "/></g></g><g style="fill:rgb(34.899902%,34.899902%,34.509277%);fill-opacity:1;"><g transform="translate(141.199094, 273.913224)"><path style="stroke:none;" d="M 0.917969 0.3125 L 6.296875 2.140625 L 6.6875 0.992188 L 2.472656 -0.4375 L 3.136719 -2.394531 L 7.15625 -1.03125 L 7.523438 -2.113281 L 3.503906 -3.476562 L 4.171875 -5.445312 L 8.355469 -4.023438 L 8.742188 -5.160156 L 3.390625 -6.976562 Z M 0.917969 0.3125 "/></g></g><g style="fill:rgb(34.899902%,34.899902%,34.509277%);fill-opacity:1;"><g transform="translate(153.679384, 277.862972)"><path style="stroke:none;" d="M 0.941406 0.21875 L 2.140625 0.496094 L 2.742188 -2.097656 L 4.328125 -1.730469 L 6.007812 1.390625 L 7.414062 1.714844 L 7.332031 1.472656 L 5.671875 -1.542969 C 7.199219 -1.402344 8.003906 -2.34375 8.25 -3.40625 C 8.542969 -4.667969 7.90625 -6.070312 6.171875 -6.472656 L 2.679688 -7.28125 Z M 2.996094 -3.1875 L 3.621094 -5.898438 L 5.914062 -5.367188 C 6.902344 -5.140625 7.179688 -4.34375 7.023438 -3.667969 C 6.855469 -2.949219 6.261719 -2.433594 5.277344 -2.660156 Z M 2.996094 -3.1875 "/></g></g><g style="fill:rgb(34.899902%,34.899902%,34.509277%);fill-opacity:1;"><g transform="translate(162.981435, 279.948756)"><path style="stroke:none;" d="M 0.957031 0.152344 L 6.566406 1.054688 L 6.757812 -0.140625 L 2.363281 -0.847656 L 2.691406 -2.886719 L 6.878906 -2.214844 L 7.0625 -3.34375 L 2.871094 -4.015625 L 3.199219 -6.066406 L 7.566406 -5.367188 L 7.753906 -6.550781 L 2.175781 -7.445312 Z M 0.957031 0.152344 "/></g></g><g style="fill:rgb(34.899902%,34.899902%,34.509277%);fill-opacity:1;"><g transform="translate(171.756649, 281.32079)"><path style="stroke:none;" d="M 0.964844 0.0859375 L 2.203125 0.195312 L 2.679688 -5.214844 L 6.550781 0.582031 L 7.480469 0.664062 L 8.160156 -7.003906 L 6.933594 -7.113281 L 6.449219 -1.65625 L 2.585938 -7.496094 L 1.644531 -7.582031 Z M 0.964844 0.0859375 "/></g></g><g style="fill:rgb(34.899902%,34.899902%,34.509277%);fill-opacity:1;"><g transform="translate(181.805812, 282.126541)"><path style="stroke:none;" d="M 2.714844 0.0546875 L 3.957031 0.078125 L 4.089844 -6.503906 L 6.609375 -6.453125 L 6.628906 -7.5625 L 0.34375 -7.691406 L 0.320312 -6.582031 L 2.847656 -6.53125 Z M 2.714844 0.0546875 "/></g></g><g style="fill:rgb(34.899902%,34.899902%,34.509277%);fill-opacity:1;"><g transform="translate(190.073594, 282.269571)"><path style="stroke:none;" d="M 0.0976562 -0.00390625 L 1.40625 -0.0664062 L 2.054688 -1.714844 L 6.214844 -1.917969 L 7.027344 -0.335938 L 8.335938 -0.398438 L 4.519531 -7.921875 L 3.179688 -7.859375 Z M 2.460938 -2.859375 L 3.910156 -6.59375 L 5.710938 -3.015625 Z M 2.460938 -2.859375 "/></g></g><g style="fill:rgb(34.899902%,34.899902%,34.509277%);fill-opacity:1;"><g transform="translate(200.102662, 281.701088)"><path style="stroke:none;" d="M 0.960938 -0.109375 L 6.214844 -0.71875 L 6.082031 -1.855469 L 2.054688 -1.390625 L 1.300781 -7.898438 L 0.0742188 -7.757812 Z M 0.960938 -0.109375 "/></g></g><g style="fill:rgb(34.899902%,34.899902%,34.509277%);fill-opacity:1;"><g transform="translate(212.265641, 280.053498)"><path style="stroke:none;" d="M 0.0976562 -0.0195312 L 1.375 -0.300781 L 1.742188 -2.03125 L 5.8125 -2.917969 L 6.875 -1.496094 L 8.15625 -1.773438 L 3.148438 -8.558594 L 1.835938 -8.273438 Z M 1.953125 -3.226562 L 2.765625 -7.148438 L 5.132812 -3.917969 Z M 1.953125 -3.226562 "/></g></g><g style="fill:rgb(34.899902%,34.899902%,34.509277%);fill-opacity:1;"><g transform="translate(222.095944, 277.855711)"><path style="stroke:none;" d="M 0.925781 -0.277344 L 2.117188 -0.628906 L 0.570312 -5.835938 L 6.300781 -1.875 L 7.199219 -2.140625 L 5.003906 -9.519531 L 3.824219 -9.167969 L 5.382812 -3.917969 L -0.359375 -7.921875 L -1.265625 -7.652344 Z M 0.925781 -0.277344 "/></g></g><g style="fill:rgb(34.899902%,34.899902%,34.509277%);fill-opacity:1;"><g transform="translate(231.76132, 274.91349)"><path style="stroke:none;" d="M 0.90625 -0.34375 L 3.628906 -1.378906 C 6.125 -2.328125 6.554688 -4.539062 5.871094 -6.335938 C 5.183594 -8.148438 3.378906 -9.519531 0.890625 -8.574219 L -1.832031 -7.539062 Z M 1.625 -1.886719 L -0.273438 -6.871094 L 1.308594 -7.472656 C 3.035156 -8.128906 4.261719 -7.136719 4.726562 -5.914062 C 5.199219 -4.671875 4.933594 -3.144531 3.207031 -2.488281 Z M 1.625 -1.886719 "/></g></g><g style="fill:rgb(34.899902%,34.899902%,34.509277%);fill-opacity:1;"><g transform="translate(244.846279, 269.638288)"><path style="stroke:none;" d="M 0.867188 -0.433594 L 1.960938 -0.996094 L -0.742188 -6.257812 L 3.21875 -4.199219 L 3.453125 -4.320312 L 4.121094 -8.753906 L 6.824219 -3.492188 L 7.917969 -4.054688 L 4.398438 -10.910156 L 3.125 -10.257812 L 2.523438 -5.894531 L -1.382812 -7.941406 L -2.65625 -7.289062 Z M 0.867188 -0.433594 "/></g></g><g style="fill:rgb(34.899902%,34.899902%,34.509277%);fill-opacity:1;"><g transform="translate(255.049296, 264.301966)"><path style="stroke:none;" d="M 3.84375 -2.210938 C 6.113281 -3.621094 6.183594 -5.902344 5.089844 -7.65625 C 4 -9.414062 1.878906 -10.386719 -0.351562 -9 C -2.324219 -7.773438 -2.820312 -5.472656 -1.589844 -3.492188 C -0.527344 -1.785156 1.574219 -0.796875 3.84375 -2.210938 Z M 3.246094 -3.171875 C 1.621094 -2.160156 0.171875 -2.96875 -0.546875 -4.128906 C -1.429688 -5.546875 -1.28125 -7.101562 0.238281 -8.046875 C 1.847656 -9.046875 3.316406 -8.199219 4.066406 -6.996094 C 4.832031 -5.761719 4.871094 -4.179688 3.246094 -3.171875 Z M 3.246094 -3.171875 "/></g></g><g style="fill:rgb(34.899902%,34.899902%,34.509277%);fill-opacity:1;"><g transform="translate(263.914682, 258.696875)"><path style="stroke:none;" d="M 0.78125 -0.570312 L 1.777344 -1.296875 L 0.207031 -3.445312 L 1.519531 -4.40625 L 4.980469 -3.636719 L 6.144531 -4.488281 L 5.90625 -4.585938 L 2.542969 -5.300781 C 3.644531 -6.363281 3.457031 -7.589844 2.8125 -8.46875 C 2.050781 -9.515625 0.574219 -9.949219 -0.863281 -8.898438 L -3.757812 -6.785156 Z M -0.457031 -4.351562 L -2.097656 -6.597656 L -0.195312 -7.984375 C 0.621094 -8.582031 1.40625 -8.269531 1.816406 -7.710938 C 2.25 -7.117188 2.253906 -6.328125 1.4375 -5.734375 Z M -0.457031 -4.351562 "/></g></g><g style="fill:rgb(34.899902%,34.899902%,34.509277%);fill-opacity:1;"><g transform="translate(271.574119, 253.021827)"><path style="stroke:none;" d="M 0.742188 -0.621094 L 5.089844 -4.28125 L 4.3125 -5.207031 L 0.90625 -2.339844 L -0.425781 -3.921875 L 2.820312 -6.65625 L 2.085938 -7.53125 L -1.164062 -4.796875 L -2.5 -6.386719 L 0.882812 -9.234375 L 0.109375 -10.152344 L -4.214844 -6.511719 Z M 0.742188 -0.621094 "/></g></g></g></svg>